<svg width="214" height="51" viewBox="0 0 214 51" fill="none" xmlns="http://www.w3.org/2000/svg">
<path d="M186.839 38.064C184.279 38.064 181.975 37.504 179.927 36.384C177.879 35.232 176.263 33.616 175.079 31.536C173.927 29.456 173.351 27.056 173.351 24.336C173.351 21.616 173.943 19.216 175.127 17.136C176.343 15.056 177.991 13.456 180.071 12.336C182.151 11.184 184.471 10.608 187.031 10.608C189.591 10.608 191.911 11.184 193.991 12.336C196.071 13.456 197.703 15.056 198.887 17.136C200.103 19.216 200.711 21.616 200.711 24.336C200.711 27.056 200.087 29.456 198.839 31.536C197.623 33.616 195.959 35.232 193.847 36.384C191.767 37.504 189.431 38.064 186.839 38.064ZM186.839 32.208C188.055 32.208 189.191 31.92 190.247 31.344C191.335 30.736 192.199 29.84 192.839 28.656C193.479 27.472 193.799 26.032 193.799 24.336C193.799 21.808 193.127 19.872 191.783 18.528C190.471 17.152 188.855 16.464 186.935 16.464C185.015 16.464 183.399 17.152 182.087 18.528C180.807 19.872 180.167 21.808 180.167 24.336C180.167 26.864 180.791 28.816 182.039 30.192C183.319 31.536 184.919 32.208 186.839 32.208Z" fill="black"/>
<path d="M165.08 7.872C163.896 7.872 162.904 7.504 162.104 6.768C161.336 6 160.952 5.056 160.952 3.936C160.952 2.816 161.336 1.888 162.104 1.152C162.904 0.383999 163.896 0 165.08 0C166.264 0 167.24 0.383999 168.008 1.152C168.808 1.888 169.208 2.816 169.208 3.936C169.208 5.056 168.808 6 168.008 6.768C167.24 7.504 166.264 7.872 165.08 7.872ZM168.392 11.04V37.632H161.672V11.04H168.392Z" fill="black"/>
<path d="M155.033 2.112V37.632H148.312V2.112H155.033Z" fill="black"/>
<path d="M129.511 38.064C126.951 38.064 124.647 37.504 122.599 36.384C120.551 35.232 118.935 33.616 117.751 31.536C116.599 29.456 116.023 27.056 116.023 24.336C116.023 21.616 116.615 19.216 117.799 17.136C119.015 15.056 120.663 13.456 122.743 12.336C124.823 11.184 127.143 10.608 129.703 10.608C132.263 10.608 134.583 11.184 136.663 12.336C138.743 13.456 140.375 15.056 141.559 17.136C142.775 19.216 143.383 21.616 143.383 24.336C143.383 27.056 142.759 29.456 141.511 31.536C140.295 33.616 138.631 35.232 136.519 36.384C134.439 37.504 132.103 38.064 129.511 38.064ZM129.511 32.208C130.727 32.208 131.863 31.92 132.919 31.344C134.007 30.736 134.871 29.84 135.511 28.656C136.151 27.472 136.471 26.032 136.471 24.336C136.471 21.808 135.799 19.872 134.455 18.528C133.143 17.152 131.527 16.464 129.607 16.464C127.687 16.464 126.071 17.152 124.759 18.528C123.479 19.872 122.839 21.808 122.839 24.336C122.839 26.864 123.463 28.816 124.711 30.192C125.991 31.536 127.591 32.208 129.511 32.208Z" fill="black"/>
<path d="M113.348 16.56H108.692V37.632H101.876V16.56H98.8522V11.04H101.876V9.69598C101.876 6.43198 102.804 4.03199 104.66 2.49598C106.516 0.959985 109.316 0.239985 113.06 0.335985V5.99998C111.428 5.96798 110.292 6.23998 109.652 6.81598C109.012 7.39198 108.692 8.43198 108.692 9.93598V11.04H113.348V16.56Z" fill="black"/>
<path d="M90.3709 16.56V29.424C90.3709 30.32 90.5789 30.976 90.9949 31.392C91.4429 31.776 92.1789 31.968 93.2029 31.968H96.3229V37.632H92.0989C86.4349 37.632 83.6029 34.88 83.6029 29.376V16.56H80.4349V11.04H83.6029V4.46399H90.3709V11.04H96.3229V16.56H90.3709Z" fill="black"/>
<path d="M69.8606 15.168C70.7246 13.76 71.8446 12.656 73.2206 11.856C74.6286 11.056 76.2286 10.656 78.0206 10.656V17.712H76.2446C74.1326 17.712 72.5326 18.208 71.4446 19.2C70.3886 20.192 69.8606 21.92 69.8606 24.384V37.632H63.1406V11.04H69.8606V15.168Z" fill="black"/>
<path d="M44.3393 38.064C41.7793 38.064 39.4753 37.504 37.4273 36.384C35.3793 35.232 33.7633 33.616 32.5793 31.536C31.4273 29.456 30.8513 27.056 30.8513 24.336C30.8513 21.616 31.4433 19.216 32.6273 17.136C33.8433 15.056 35.4913 13.456 37.5713 12.336C39.6513 11.184 41.9713 10.608 44.5313 10.608C47.0913 10.608 49.4113 11.184 51.4913 12.336C53.5713 13.456 55.2033 15.056 56.3873 17.136C57.6033 19.216 58.2113 21.616 58.2113 24.336C58.2113 27.056 57.5873 29.456 56.3393 31.536C55.1233 33.616 53.4593 35.232 51.3473 36.384C49.2673 37.504 46.9313 38.064 44.3393 38.064ZM44.3393 32.208C45.5553 32.208 46.6913 31.92 47.7473 31.344C48.8353 30.736 49.6993 29.84 50.3393 28.656C50.9793 27.472 51.2993 26.032 51.2993 24.336C51.2993 21.808 50.6273 19.872 49.2833 18.528C47.9713 17.152 46.3553 16.464 44.4353 16.464C42.5153 16.464 40.8993 17.152 39.5873 18.528C38.3073 19.872 37.6673 21.808 37.6673 24.336C37.6673 26.864 38.2913 28.816 39.5393 30.192C40.8193 31.536 42.4193 32.208 44.3393 32.208Z" fill="black"/>
<path d="M6.72 14.88C7.584 13.664 8.768 12.656 10.272 11.856C11.808 11.024 13.552 10.608 15.504 10.608C17.776 10.608 19.824 11.168 21.648 12.288C23.504 13.408 24.96 15.008 26.016 17.088C27.104 19.136 27.648 21.52 27.648 24.24C27.648 26.96 27.104 29.376 26.016 31.488C24.96 33.568 23.504 35.184 21.648 36.336C19.824 37.488 17.776 38.064 15.504 38.064C13.552 38.064 11.824 37.664 10.32 36.864C8.848 36.064 7.648 35.056 6.72 33.84V50.304H0V11.04H6.72V14.88ZM20.784 24.24C20.784 22.64 20.448 21.264 19.776 20.112C19.136 18.928 18.272 18.032 17.184 17.424C16.128 16.816 14.976 16.512 13.728 16.512C12.512 16.512 11.36 16.832 10.272 17.472C9.216 18.08 8.352 18.976 7.68 20.16C7.04 21.344 6.72 22.736 6.72 24.336C6.72 25.936 7.04 27.328 7.68 28.512C8.352 29.696 9.216 30.608 10.272 31.248C11.36 31.856 12.512 32.16 13.728 32.16C14.976 32.16 16.128 31.84 17.184 31.2C18.272 30.56 19.136 29.648 19.776 28.464C20.448 27.28 20.784 25.872 20.784 24.24Z" fill="black"/>
<path d="M208.976 37.968C207.76 37.968 206.752 37.6 205.952 36.864C205.184 36.096 204.8 35.152 204.8 34.032C204.8 32.912 205.184 31.984 205.952 31.248C206.752 30.48 207.76 30.096 208.976 30.096C210.16 30.096 211.136 30.48 211.904 31.248C212.672 31.984 213.056 32.912 213.056 34.032C213.056 35.152 212.672 36.096 211.904 36.864C211.136 37.6 210.16 37.968 208.976 37.968Z" fill="#F5C61F"/>
</svg>
